HIERARCHY
ROOT hip
{
  OFFSET 0 0 0
  CHANNELS 6 Xposition Yposition Zposition Zrotation Yrotation Xrotation
  JOINT abdomen
  {
    OFFSET 0 20.6881 -0.73152
    CHANNELS 3 Zrotation Xrotation Yrotation
    JOINT chest
    {
      OFFSET 0 11.7043 -0.48768
      CHANNELS 3 Zrotation Xrotation Yrotation
      JOINT neck
      {
        OFFSET 0 22.1894 -2.19456
        CHANNELS 3 Zrotation Xrotation Yrotation
        JOINT head
        {
          OFFSET -0.24384 7.07133 1.2192
          CHANNELS 3 Zrotation Xrotation Yrotation
          JOINT leftEye
          {
            OFFSET 4.14528 8.04674 8.04672
            CHANNELS 3 Zrotation Xrotation Yrotation
            End Site
            {
              OFFSET 1 0 0
            }
          }
          JOINT rightEye
          {
            OFFSET -3.6576 8.04674 8.04672
            CHANNELS 3 Zrotation Xrotation Yrotation
            End Site
            {
              OFFSET 1 0 0
            }
          }
        }
      }
      JOINT rCollar
      {
        OFFSET -2.68224 19.2634 -4.8768
        CHANNELS 3 Zrotation Xrotation Yrotation
        JOINT rShldr
        {
          OFFSET -8.77824 -1.95073 1.46304
          CHANNELS 3 Zrotation Xrotation Yrotation
          JOINT rForeArm
          {
            OFFSET -28.1742 -1.7115 0.48768
            CHANNELS 3 Zrotation Xrotation Yrotation
            JOINT rHand
            {
              OFFSET -22.5879 0.773209 7.07136
              CHANNELS 3 Zrotation Xrotation Yrotation
              JOINT rThumb1
              {
                OFFSET -1.2192 -0.487915 3.41376
                CHANNELS 3 Zrotation Xrotation Yrotation
                JOINT rThumb2
                {
                  OFFSET -3.37035 -0.52449 3.41376
                  CHANNELS 3 Zrotation Xrotation Yrotation
                  End Site
                  {
                    OFFSET -1.78271 -1.18214 1.43049
                  }
                }
              }
              JOINT rIndex1
              {
                OFFSET -7.75947 0.938293 5.60832
                CHANNELS 3 Zrotation Xrotation Yrotation
                JOINT rIndex2
                {
                  OFFSET -2.54057 -0.884171 1.56538
                  CHANNELS 3 Zrotation Xrotation Yrotation
                  End Site
                  {
                    OFFSET -1.62519 -0.234802 1.16502
                  }
                }
              }
              JOINT rMid1
              {
                OFFSET -8.24714 1.18213 3.41376
                CHANNELS 3 Zrotation Xrotation Yrotation
                JOINT rMid2
                {
                  OFFSET -3.10165 -0.590103 1.0647
                  CHANNELS 3 Zrotation Xrotation Yrotation
                  End Site
                  {
                    OFFSET -2.48547 -0.328903 0.83742
                  }
                }
              }
              JOINT rRing1
              {
                OFFSET -8.82822 0.546677 1.51678
                CHANNELS 3 Zrotation Xrotation Yrotation
                JOINT rRing2
                {
                  OFFSET -2.60934 -0.819778 -0.0198488
                  CHANNELS 3 Zrotation Xrotation Yrotation
                  End Site
                  {
                    OFFSET -2.33842 -0.294052 0.168128
                  }
                }
              }
              JOINT rPinky1
              {
                OFFSET -8.27202 -0.0477905 -0.4584
                CHANNELS 3 Zrotation Xrotation Yrotation
                JOINT rPinky2
                {
                  OFFSET -1.82734 -0.647385 -0.700984
                  CHANNELS 3 Zrotation Xrotation Yrotation
                  End Site
                  {
                    OFFSET -1.69225 -0.51767 -0.607171
                  }
                }
              }
            }
          }
        }
      }
      JOINT lCollar
      {
        OFFSET 2.68224 19.2634 -4.8768
        CHANNELS 3 Zrotation Xrotation Yrotation
        JOINT lShldr
        {
          OFFSET 8.77824 -1.95073 1.46304
          CHANNELS 3 Zrotation Xrotation Yrotation
          JOINT lForeArm
          {
            OFFSET 28.1742 -1.7115 0.48768
            CHANNELS 3 Zrotation Xrotation Yrotation
            JOINT lHand
            {
              OFFSET 22.5879 0.773209 7.07136
              CHANNELS 3 Zrotation Xrotation Yrotation
              JOINT lThumb1
              {
                OFFSET 1.2192 -0.487915 3.41376
                CHANNELS 3 Zrotation Xrotation Yrotation
                JOINT lThumb2
                {
                  OFFSET 3.37035 -0.52449 3.41376
                  CHANNELS 3 Zrotation Xrotation Yrotation
                  End Site
                  {
                    OFFSET 1.78271 -1.18214 1.43049
                  }
                }
              }
              JOINT lIndex1
              {
                OFFSET 7.75947 0.938293 5.60832
                CHANNELS 3 Zrotation Xrotation Yrotation
                JOINT lIndex2
                {
                  OFFSET 2.54057 -0.884171 1.56538
                  CHANNELS 3 Zrotation Xrotation Yrotation
                  End Site
                  {
                    OFFSET 1.62519 -0.234802 1.16502
                  }
                }
              }
              JOINT lMid1
              {
                OFFSET 8.24714 1.18213 3.41376
                CHANNELS 3 Zrotation Xrotation Yrotation
                JOINT lMid2
                {
                  OFFSET 3.10165 -0.590103 1.0647
                  CHANNELS 3 Zrotation Xrotation Yrotation
                  End Site
                  {
                    OFFSET 2.48547 -0.328903 0.83742
                  }
                }
              }
              JOINT lRing1
              {
                OFFSET 8.82822 0.546677 1.51678
                CHANNELS 3 Zrotation Xrotation Yrotation
                JOINT lRing2
                {
                  OFFSET 2.60934 -0.819778 -0.0198488
                  CHANNELS 3 Zrotation Xrotation Yrotation
                  End Site
                  {
                    OFFSET 2.33842 -0.294052 0.168128
                  }
                }
              }
              JOINT lPinky1
              {
                OFFSET 8.27202 -0.0477905 -0.4584
                CHANNELS 3 Zrotation Xrotation Yrotation
                JOINT lPinky2
                {
                  OFFSET 1.82734 -0.647385 -0.700984
                  CHANNELS 3 Zrotation Xrotation Yrotation
                  End Site
                  {
                    OFFSET 1.69225 -0.51767 -0.607171
                  }
                }
              }
            }
          }
        }
      }
    }
  }
  JOINT rButtock
  {
    OFFSET -8.77824 4.35084 1.2192
    CHANNELS 3 Zrotation Xrotation Yrotation
    JOINT rThigh
    {
      OFFSET 0 -1.70687 -2.19456
      CHANNELS 3 Zrotation Xrotation Yrotation
      JOINT rShin
      {
        OFFSET 0 -36.8199 0.73152
        CHANNELS 3 Zrotation Xrotation Yrotation
        JOINT rFoot
        {
          OFFSET 0.73152 -45.1104 -5.12064
          CHANNELS 3 Zrotation Xrotation Yrotation
          End Site
          {
            OFFSET -1.1221 -3.69964 12.103
          }
        }
      }
    }
  }
  JOINT lButtock
  {
    OFFSET 8.77824 4.35084 1.2192
    CHANNELS 3 Zrotation Xrotation Yrotation
    JOINT lThigh
    {
      OFFSET 0 -1.70687 -2.19456
      CHANNELS 3 Zrotation Xrotation Yrotation
      JOINT lShin
      {
        OFFSET 0 -36.8199 0.73152
        CHANNELS 3 Zrotation Xrotation Yrotation
        JOINT lFoot
        {
          OFFSET -0.73152 -45.1104 -5.12064
          CHANNELS 3 Zrotation Xrotation Yrotation
          End Site
          {
            OFFSET 1.1221 -3.69964 12.103
          }
        }
      }
    }
  }
}
MOTION
Frames:	6
Frame Time:	0.00833333
277.419 82.3874 -9.14528 352.605 98.9401 337.955 -0.52493 23.169 -1.00441 3.3548 -3.32158 0.262038 -0.818425 -7.48321 -1.0689 5.20529 2.93441 -1.65718 -0.0 0.0 0.0 -0.0 0.0 0.0 1.07982e-13 2.73647e-12 -6.15388e-13 91.8075 38.0375 -50.3246 -26.0648 -23.6022 57.0362 -0.393408 -17.5524 -2.54785 -9.38332e-10 -3.48996e-10 8.59217e-10 -1.62831e-09 -5.99824e-10 1.46762e-09 -9.38326e-10 -3.48996e-10 8.59208e-10 7.73091 5.47488 0.417314 -9.38329e-10 -3.49e-10 8.59208e-10 2.90554 0.965183 0.102902 -9.3832e-10 -3.48996e-10 8.59208e-10 10.2786 0.731801 0.0259123 -9.38331e-10 -3.48997e-10 8.59208e-10 2.22167 -0.733487 -0.20892 1.07905e-13 2.73647e-12 -6.15636e-13 -51.5778 52.6517 -24.6991 28.4123 -34.5727 -74.64 0.0300568 -4.9427 0.696397 -6.3104e-10 -8.26687e-10 2.09902e-09 -1.09345e-09 -1.4303e-09 3.63003e-09 -6.31046e-10 -8.26688e-10 2.09901e-09 -7.73091 5.47488 -0.417314 -6.3104e-10 -8.26684e-10 2.099e-09 -2.90554 0.965183 -0.102902 -6.31059e-10 -8.26686e-10 2.09901e-09 -10.2786 0.731801 -0.0259123 -6.31039e-10 -8.26686e-10 2.09901e-09 -2.22167 -0.733487 0.20892 -2.03217e-16 0.0 -3.88251e-19 -0.478649 -16.0967 -4.47074 -0.240583 36.5214 0.223825 -1.95086 -7.3436 -9.01519 2.03217e-16 0.0 3.88251e-19 8.68689 -11.0769 7.06395 1.12334 59.7521 -1.2759 -0.681542 -3.95956 -5.37286
278.188 82.7346 -9.01671 357.182 98.8911 342.268 -0.295325 23.0308 -1.17395 3.28416 -3.42757 0.223598 -0.713649 -7.23352 -0.991005 5.3193 3.05497 -1.53672 -0.0 0.0 0.0 -0.0 0.0 0.0 9.5888e-14 2.55258e-12 -6.05762e-13 90.3716 38.6214 -47.8744 -25.9136 -23.2157 56.4111 -0.336433 -16.3718 -2.36512 -8.67226e-10 -2.77062e-10 7.32639e-10 -1.50382e-09 -4.75602e-10 1.25037e-09 -8.67221e-10 -2.77064e-10 7.32632e-10 7.73091 5.47488 0.417314 -8.67223e-10 -2.77067e-10 7.32631e-10 2.90554 0.965183 0.102902 -8.67215e-10 -2.77063e-10 7.32631e-10 10.2786 0.731801 0.0259123 -8.67226e-10 -2.77063e-10 7.32633e-10 2.22167 -0.733487 -0.20892 9.58166e-14 2.55258e-12 -6.06007e-13 -54.371 52.8708 -22.0564 28.3837 -33.8771 -73.4579 0.0292265 -4.72917 0.666375 -5.5746e-10 -5.44912e-10 1.91955e-09 -9.66268e-10 -9.42996e-10 3.32058e-09 -5.57466e-10 -5.44914e-10 1.91954e-09 -7.73091 5.47488 -0.417314 -5.5746e-10 -5.44909e-10 1.91953e-09 -2.90554 0.965183 -0.102902 -5.57479e-10 -5.44913e-10 1.91954e-09 -10.2786 0.731801 -0.0259123 -5.57458e-10 -5.44913e-10 1.91954e-09 -2.22167 -0.733487 0.20892 -2.03217e-16 0.0 -3.88251e-19 -0.179782 -15.0643 -4.41471 -0.222323 35.8833 0.229946 -1.97605 -7.52547 -9.04102 2.03217e-16 0.0 3.88251e-19 8.86799 -10.8634 6.96941 1.06757 58.8889 -1.22808 -0.592112 -4.702 -4.63005
278.908 83.095 -9.1531 354.841 98.9224 340.062 0.0652682 22.7725 -1.37225 3.11334 -3.57369 0.177846 -0.539402 -7.05874 -0.899909 5.34783 3.40635 -1.41745 -0.0 0.0 0.0 -0.0 0.0 0.0 6.52602e-14 1.83201e-12 -4.75819e-13 88.9084 38.9008 -45.2837 -25.763 -22.8419 55.7948 -0.273868 -14.854 -2.13466 -8.15333e-10 -2.70929e-10 6.47093e-10 -1.41382e-09 -4.65668e-10 1.10533e-09 -8.1533e-10 -2.70933e-10 6.47089e-10 7.73091 5.47488 0.417314 -8.1533e-10 -2.70934e-10 6.47089e-10 2.90554 0.965183 0.102902 -8.15325e-10 -2.70931e-10 6.47088e-10 10.2786 0.731801 0.0259123 -8.15335e-10 -2.70928e-10 6.47094e-10 2.22167 -0.733487 -0.20892 6.52089e-14 1.83201e-12 -4.76046e-13 -57.1077 53.072 -19.3506 28.327 -33.1001 -72.1867 0.0304373 -4.688 0.660768 -5.3244e-10 -3.62695e-10 1.88916e-09 -9.25677e-10 -6.27929e-10 3.26722e-09 -5.32446e-10 -3.62697e-10 1.88916e-09 -7.73091 5.47488 -0.417314 -5.32439e-10 -3.62692e-10 1.88915e-09 -2.90554 0.965183 -0.102902 -5.32455e-10 -3.62697e-10 1.88916e-09 -10.2786 0.731801 -0.0259123 -5.32437e-10 -3.62698e-10 1.88915e-09 -2.22167 -0.733487 0.20892 -2.03217e-16 0.0 -3.88251e-19 0.175816 -14.0516 -4.37933 -0.201085 35.115 0.23446 -1.98724 -7.64751 -9.05055 2.03217e-16 0.0 3.88251e-19 9.09822 -10.6687 6.84263 1.0006 57.7892 -1.17034 -0.479284 -5.49121 -3.85862
279.618 83.4624 -9.25581 354.45 98.8014 339.746 0.439169 22.4362 -1.51789 2.91677 -3.71824 0.144001 -0.353836 -6.94394 -0.817637 5.30089 3.82151 -1.32048 -0.0 0.0 0.0 -0.0 0.0 0.0 3.27523e-14 1.02516e-12 -3.13075e-13 87.4379 38.9333 -42.6314 -25.6275 -22.5145 55.2601 -0.216516 -13.2029 -1.88863 -7.39694e-10 -2.92431e-10 6.31883e-10 -1.28345e-09 -5.03701e-10 1.08204e-09 -7.39691e-10 -2.92437e-10 6.31881e-10 7.73091 5.47488 0.417314 -7.39691e-10 -2.92436e-10 6.31883e-10 2.90554 0.965183 0.102902 -7.39689e-10 -2.92434e-10 6.31882e-10 10.2786 0.731801 0.0259123 -7.39699e-10 -2.92429e-10 6.31891e-10 2.22167 -0.733487 -0.20892 3.2723e-14 1.02516e-12 -3.13282e-13 -59.7861 53.2201 -16.6394 28.2417 -32.2902 -70.8998 0.0328842 -4.9085 0.691972 -5.15541e-10 -2.39585e-10 1.7244e-09 -8.9817e-10 -4.14842e-10 2.98111e-09 -5.15546e-10 -2.39587e-10 1.7244e-09 -7.73091 5.47488 -0.417314 -5.15539e-10 -2.39582e-10 1.72439e-09 -2.90554 0.965183 -0.102902 -5.15552e-10 -2.39587e-10 1.72439e-09 -10.2786 0.731801 -0.0259123 -5.15536e-10 -2.39588e-10 1.72439e-09 -2.22167 -0.733487 0.20892 -2.03217e-16 0.0 -3.88251e-19 0.528902 -13.082 -4.33482 -0.1785 34.2746 0.238023 -1.98657 -7.72053 -9.03861 2.03217e-16 0.0 3.88251e-19 9.31908 -10.4598 6.72477 0.927676 56.4872 -1.10744 -0.341192 -6.27898 -3.0676
280.228 83.8481 -9.20688 358.38 98.8281 343.661 0.711393 22.0641 -1.53051 2.7691 -3.81954 0.141297 -0.215013 -6.87419 -0.766208 5.19037 4.13343 -1.26695 -0.0 0.0 0.0 -0.0 0.0 0.0 1.50179e-14 5.82413e-13 -2.05046e-13 85.9674 38.7903 -39.9906 -25.5251 -22.2719 54.8782 -0.168606 -11.6229 -1.6565 -5.97346e-10 -3.03403e-10 7.16312e-10 -1.03789e-09 -5.23379e-10 1.23007e-09 -5.97341e-10 -3.03409e-10 7.16309e-10 7.73091 5.47488 0.417314 -5.97344e-10 -3.03408e-10 7.16315e-10 2.90554 0.965183 0.102902 -5.97344e-10 -3.03407e-10 7.16313e-10 10.2786 0.731801 0.0259123 -5.97353e-10 -3.034e-10 7.16324e-10 2.22167 -0.733487 -0.20892 1.49995e-14 5.82415e-13 -2.05245e-13 -62.3942 53.285 -13.9898 28.1372 -31.5043 -69.6563 0.0369731 -5.47998 0.772541 -4.66322e-10 -1.35129e-10 1.14179e-09 -8.10241e-10 -2.33481e-10 1.97336e-09 -4.66327e-10 -1.35131e-10 1.1418e-09 -7.73091 5.47488 -0.417314 -4.66319e-10 -1.35126e-10 1.14178e-09 -2.90554 0.965183 -0.102902 -4.6633e-10 -1.35131e-10 1.14179e-09 -10.2786 0.731801 -0.0259123 -4.66316e-10 -1.35132e-10 1.14178e-09 -2.22167 -0.733487 0.20892 -2.03217e-16 0.0 -3.88251e-19 0.818258 -12.1789 -4.25175 -0.156185 33.4203 0.241272 -1.97624 -7.7553 -9.00005 2.03217e-16 0.0 3.88251e-19 9.47173 -10.2039 6.657 0.853286 55.0173 -1.04349 -0.17909 -7.0169 -2.26612
280.828 84.2106 -9.12752 360.432 98.6937 345.903 0.880948 21.6482 -1.37504 2.68537 -3.85227 0.179435 -0.161013 -6.86153 -0.768708 5.02069 4.30082 -1.28871 -0.0 0.0 0.0 -0.0 0.0 0.0 2.12528e-14 7.35767e-13 -1.81527e-13 84.4722 38.4207 -37.3493 -25.4669 -22.1359 54.6717 -0.126152 -10.1098 -1.43599 -3.12485e-10 -3.00582e-10 1.00103e-09 -5.46324e-10 -5.19033e-10 1.72283e-09 -3.12472e-10 -3.00587e-10 1.00102e-09 7.73091 5.47488 0.417314 -3.12483e-10 -3.00587e-10 1.00104e-09 2.90554 0.965183 0.102902 -3.12484e-10 -3.00587e-10 1.00104e-09 10.2786 0.731801 0.0259123 -3.12494e-10 -3.0058e-10 1.00105e-09 2.22167 -0.733487 -0.20892 2.1228e-14 7.35769e-13 -1.81731e-13 -64.9339 53.2518 -11.4287 28.022 -30.7532 -68.4547 0.0485582 -6.57565 0.927656 -3.62492e-10 -5.22861e-11 -2.70366e-10 -6.1936e-10 -8.84167e-11 -4.67282e-10 -3.62496e-10 -5.2287e-11 -2.70357e-10 -7.73091 5.47488 -0.417314 -3.62489e-10 -5.22834e-11 -2.70368e-10 -2.90554 0.965183 -0.102902 -3.625e-10 -5.22875e-11 -2.70366e-10 -10.2786 0.731801 -0.0259123 -3.62486e-10 -5.2287e-11 -2.70372e-10 -2.22167 -0.733487 0.20892 -2.03217e-16 0.0 -3.88251e-19 1.0508 -11.3404 -4.11112 -0.133618 32.5298 0.243756 -1.95571 -7.75477 -8.93087 2.03217e-16 0.0 3.88251e-19 9.56844 -9.88811 6.67852 0.777323 53.3541 -0.978968 0.0237955 -7.68517 -1.37994
